PathFileType	4	(X/Y/Z)	C:\Users\Basilio\Documents\Thesis Gigler\squatting_fais\c3dfiles\075\SLS_back_pre5\markers_experimental.trc
DataRate	CameraRate	NumFrames	NumMarkers	Units	OrigDataRate	OrigDataStartFrame	OrigNumFrames
200.000000	200.000000	4	61	mm	200.000000	645	1291
Frame#	Time	FHD			LBHD			C7			T10			CLAV			LSHO			LUUPA			LMUPA			LDUPA			LLEP			LMEP			LRAD			LUL			LRFIN			RSHO			RUPA1			RMUPA			RDUPA			RLEP			RMEP			RRAD			RUL			RUFIN			LASI			RASI			USACR			LSACR			RSACR			LTHI1			LTHI2			LTHI3			LTHI4			LLFC			LMFC			LTIB1			LTIB2			LTIB3			LTIB4			LLMAL			LMMAL			LHEE			LMT1			LMT2			LMT5			RTHI			RTHI2			RTHI3			RTHI4			RLFC			RMFC			RTIB1			RTIB2			RTIB3			RTIB4			RLMAL			RMMAL			RHEE			RMT1			RMT2			RMT5			RBHD			
		X1	Y1	Z1	X2	Y2	Z2	X3	Y3	Z3	X4	Y4	Z4	X5	Y5	Z5	X6	Y6	Z6	X7	Y7	Z7	X8	Y8	Z8	X9	Y9	Z9	X10	Y10	Z10	X11	Y11	Z11	X12	Y12	Z12	X13	Y13	Z13	X14	Y14	Z14	X15	Y15	Z15	X16	Y16	Z16	X17	Y17	Z17	X18	Y18	Z18	X19	Y19	Z19	X20	Y20	Z20	X21	Y21	Z21	X22	Y22	Z22	X23	Y23	Z23	X24	Y24	Z24	X25	Y25	Z25	X26	Y26	Z26	X27	Y27	Z27	X28	Y28	Z28	X29	Y29	Z29	X30	Y30	Z30	X31	Y31	Z31	X32	Y32	Z32	X33	Y33	Z33	X34	Y34	Z34	X35	Y35	Z35	X36	Y36	Z36	X37	Y37	Z37	X38	Y38	Z38	X39	Y39	Z39	X40	Y40	Z40	X41	Y41	Z41	X42	Y42	Z42	X43	Y43	Z43	X44	Y44	Z44	X45	Y45	Z45	X46	Y46	Z46	X47	Y47	Z47	X48	Y48	Z48	X49	Y49	Z49	X50	Y50	Z50	X51	Y51	Z51	X52	Y52	Z52	X53	Y53	Z53	X54	Y54	Z54	X55	Y55	Z55	X56	Y56	Z56	X57	Y57	Z57	X58	Y58	Z58	X59	Y59	Z59	X60	Y60	Z60	X61	Y61	Z61	

646	3.225	-96.26042938232425	1439.967163085938	-749.0405273437501	-256.3113098144532	1345.8642578125	-823.3604736328127	-313.7391052246094	1257.050903320313	-766.5669555664064	-471.9428710937501	982.082702636719	-783.895935058594	-198.5744171142579	1153.09619140625	-762.7699584960939	-206.5778045654297	1225.887329101563	-887.1503906250002	-70.66528320312501	1142.192138671875	-991.5449829101565	-40.4537467956543	1159.566772460938	-956.3931884765627	-1.873217463493348	1128.309814453125	-991.7532348632815	78.98167419433595	1109.344848632813	-978.034606933594	53.29301071166994	1038.244750976563	-935.6156005859377	nan	nan	nan	305.3832092285157	1118.889404296875	-848.961853027344	303.2870483398438	1141.878662109375	-742.8267822265626	-228.8218383789063	1204.401977539063	-629.6466064453126	-113.0794677734375	1121.50244140625	-510.8561401367189	-75.59948730468751	1137.341064453125	-538.1702880859376	-45.76105499267579	1104.2333984375	-495.9331359863282	25.15741157531739	1093.391479492188	-495.9453735351564	26.94322013854981	1019.925354003906	-524.5102539062501	232.2299957275391	1120.854858398438	-680.5403442382814	258.7357177734376	1120.729370117188	-608.0797729492189	309.1540222167969	1156.182983398438	-707.7023925781251	-393.0135498046876	778.616638183594	-922.5637817382815	-388.5451049804689	771.5952148437502	-672.3344116210939	-519.5227050781251	881.3858032226565	-793.9215087890627	-536.4794311523439	855.6734619140627	-822.4428710937502	-538.5717773437501	854.7210083007815	-764.5979614257814	-383.3520202636719	596.8334350585939	-1024.830688476563	-322.2437438964844	538.5573730468751	-1034.333862304688	-286.6293334960938	551.4703369140626	-1002.553405761719	-327.9899597167969	478.6453552246095	-1046.661254882813	-314.0776367187501	392.4100646972657	-1051.186645507813	-304.9516601562501	345.6510925292969	-922.6180419921877	-381.3349609375001	281.4086303710938	-1019.42724609375	-439.3466186523439	328.3942871093751	-1064.323364257813	-430.725555419922	286.7840270996094	-1050.048095703125	-507.8066406250001	264.9454650878907	-1020.542236328125	-662.6756591796876	296.6656799316407	-1041.829345703125	-640.5689697265626	276.8295593261719	-958.0371093750002	-681.7188720703126	356.4596862792969	-1002.905334472656	-725.2851562500001	163.9349212646485	-939.0368652343752	-737.8083496093751	151.2559356689453	-981.8508300781252	-761.5308227539064	186.3145599365235	-1034.4990234375	-399.6257324218751	624.0662841796876	-612.5460205078126	-334.4682006835938	614.1114501953126	-616.3058471679689	-316.0787048339844	641.7333984375001	-625.7999877929689	-295.6535339355469	540.1752929687501	-623.7274169921876	-212.8508300781251	427.7434692382814	-666.6433715820314	-184.230224609375	447.6729736328126	-787.0711669921877	-200.1492309570313	299.8613891601563	-759.2804565429689	-274.7760314941407	238.1967315673829	-709.4572143554689	-245.4250030517579	225.5189056396485	-746.4761352539064	-277.6223449707032	199.8846740722657	-788.2214355468752	-388.3759155273439	110.1895980834961	-761.4265747070314	-354.9915466308594	141.9819793701172	-841.4967041015627	-447.7020263671876	99.21622467041018	-823.1204833984377	-246.6858367919922	56.55204391479494	-834.9466552734377	-245.9508666992188	55.41719436645509	-792.5906982421877	-283.2410583496094	33.85164642333985	-740.7098999023439	-216.7823944091797	1374.771728515625	-668.1390991210939	
647	3.23	-96.61038208007815	1441.80712890625	-749.0935668945314	-256.5963745117188	1347.569213867188	-823.4390258789065	-313.8068542480469	1258.734008789063	-766.6161499023439	-471.8006591796876	983.5234985351565	-783.8090820312502	-198.5946350097657	1154.734252929688	-762.7523803710939	-206.5715789794922	1227.663452148438	-886.9781494140627	-70.60967254638673	1143.977172851563	-991.317565917969	-40.46524047851563	1161.407592773438	-956.3743896484377	-1.873682379722596	1130.29443359375	-991.5924072265627	78.15473937988283	1111.606201171875	-978.306823730469	53.44651031494142	1040.175659179688	-935.5200805664065	nan	nan	nan	305.5388183593751	1120.947143554688	-848.6412353515627	303.0315551757813	1144.118041992188	-742.5007324218751	-228.9971466064454	1206.059326171875	-629.6378173828126	-113.0661239624024	1123.344482421875	-510.6317749023439	-75.70056915283205	1139.018188476563	-538.1616210937501	-45.91175842285157	1106.054565429688	-495.8115844726564	25.03052139282227	1095.388793945313	-495.6198730468751	26.95873641967774	1021.858703613281	-524.2119140625001	231.9876861572266	1122.882202148438	-680.1019897460939	258.7511596679688	1123.010864257813	-607.7767944335939	309.1474609375001	1158.339599609375	-707.3514404296876	-392.564422607422	780.1833496093752	-922.8455810546877	-388.1892395019532	773.0134887695315	-672.3982543945314	-519.6420898437501	883.068786621094	-793.852722167969	-536.0286254882814	857.4958496093752	-822.529235839844	-538.1539916992189	856.0301513671877	-764.8219604492189	-383.0172424316407	598.2525634765626	-1025.062377929688	-323.3549804687501	540.2649536132814	-1034.62744140625	-286.1907043457032	552.7342529296876	-1002.640197753906	-327.6814575195313	480.0255737304689	-1046.691162109375	-314.1383056640626	394.0594482421876	-1051.422607421875	-304.6859436035157	347.0820922851563	-922.597839355469	-380.6497802734376	282.5709533691407	-1018.874572753906	-439.0841064453126	329.5815429687501	-1064.266967773438	-430.3349914550782	287.8311462402344	-1049.964477539063	-507.4988708496095	266.1968994140626	-1020.418273925781	-663.2201538085939	298.1999511718751	-1042.10498046875	-640.2583007812501	278.1475524902344	-957.9000244140627	-681.6788330078126	358.1118469238282	-1002.805541992188	-725.2653808593751	165.4728088378907	-938.5071411132815	-733.9232177734376	152.698486328125	-984.6668701171877	-760.4609375000001	187.3101501464844	-1034.496704101563	-399.4790344238282	625.1447143554689	-612.6639404296876	-334.2410888671876	615.2272338867189	-616.3931274414064	-315.9082336425782	642.4307250976564	-626.0202026367189	-295.9281005859376	540.8240356445314	-624.0118408203126	-213.3290252685547	428.2106018066407	-666.8297119140626	-184.7183990478516	448.0523376464845	-787.2727050781252	-200.4224853515626	300.1303405761719	-759.3818969726564	-275.0092468261719	238.5409851074219	-709.1555786132814	-245.6624603271485	225.8127746582032	-746.6052856445314	-277.6423034667969	200.0064544677735	-788.2966918945315	-388.3829650878907	110.2149047851563	-761.4459228515626	-355.5699768066407	142.21826171875	-841.6855468750002	-447.7263488769532	99.24515533447268	-823.138366699219	-246.7738952636719	56.5688934326172	-835.0222167968752	-245.966537475586	55.37322235107423	-792.6256103515627	-283.2371215820313	33.87250518798829	-740.7318725585939	-217.031967163086	1376.6826171875	-667.9333496093751	
648	3.235	-96.86225128173831	1443.756225585938	-749.0029296875001	-256.8530883789063	1349.272094726563	-823.1662597656252	-313.9725036621094	1260.301025390625	-766.5100097656251	-471.6348876953126	984.9522705078127	-783.9687500000002	-198.6198272705079	1156.517944335938	-762.7421875000001	-206.7749023437501	1229.308959960938	-886.9573364257815	-70.02800750732423	1145.707153320313	-991.049011230469	-40.40474319458009	1163.384765625	-956.192077636719	-1.936196565628052	1131.982421875	-991.347351074219	79.25012207031251	1113.378662109375	-978.0054931640627	53.49227142333986	1042.128540039063	-935.3286743164065	nan	nan	nan	305.3954467773438	1123.251586914063	-848.4172363281252	303.0096740722657	1146.41455078125	-742.3258666992189	-229.1738586425782	1207.79833984375	-629.6686401367189	-113.2168579101563	1125.347412109375	-510.6046447753907	-75.77980041503908	1140.959716796875	-538.0180664062501	-45.92637634277344	1108.034545898438	-495.6511840820314	25.02434539794923	1097.513671875	-495.4855346679689	26.94351768493653	1023.929321289063	-523.7687988281251	231.9875946044922	1124.917358398438	-679.9467163085939	258.5372619628907	1125.102172851563	-607.6137695312501	309.0451049804688	1160.569702148438	-707.0485839843751	-392.2127685546876	781.5922851562502	-922.7850341796877	-387.4624633789064	774.7840576171877	-672.2008666992189	-518.8602905273439	884.5627441406252	-794.0731201171877	-535.6938476562501	858.672546386719	-822.6553955078127	-537.8860473632814	857.830749511719	-764.8445434570314	-382.8097229003907	599.7414550781251	-1025.027954101563	-322.2104187011719	541.3859252929689	-1034.4560546875	-286.0151367187501	554.1305541992189	-1002.693237304688	-327.3631286621094	481.4476928710939	-1046.745849609375	-313.7324829101563	395.386199951172	-1051.300048828125	-304.2850036621094	348.6012878417969	-922.6765747070315	-380.8081054687501	284.1490783691407	-1019.308044433594	-438.9435424804689	331.1416931152344	-1064.296752929688	-430.3429565429689	289.3383483886719	-1050.01708984375	-507.2915344238282	267.6484680175782	-1020.30517578125	-661.9249267578126	299.0149230957032	-1041.46240234375	-639.9575195312501	279.5073852539063	-957.797790527344	-681.4813842773439	359.3782043457032	-1002.723083496094	-724.7811889648439	166.665771484375	-938.425476074219	-736.9365234375001	153.4088745117188	-981.1820068359377	-760.7684326171876	188.7447814941407	-1034.0546875	-399.4993286132814	626.2895507812501	-612.8950195312501	-334.1339721679688	616.0153808593751	-616.4910278320314	-315.5671997070313	643.1247558593751	-626.4280395507814	-296.0645141601563	541.5632324218751	-624.2667846679689	-213.7724914550782	428.5877990722657	-666.9435424804689	-184.9688110351563	448.3495178222657	-787.4609375000002	-200.8703002929688	300.4772338867188	-759.5045776367189	-275.1553955078126	238.7126464843751	-709.6123657226564	-245.999008178711	226.2138366699219	-746.7101440429689	-277.8253784179688	200.1621246337891	-788.356628417969	-388.3741149902345	110.2524108886719	-761.5024414062501	-354.9992065429688	142.0804748535157	-841.5467529296877	-447.7188110351564	99.22245788574222	-823.1528930664065	-246.6771850585938	56.57175445556642	-834.9996337890627	-245.7340545654297	55.26598739624025	-792.5697021484377	-283.2608337402344	33.88814544677735	-740.7560424804689	-217.369369506836	1378.428833007813	-667.8906250000001	
649	3.24	-97.12255859375003	1445.556640625	-748.9200439453126	-257.2043151855469	1350.838012695313	-823.3672485351565	-314.0976562500001	1261.926391601563	-766.5944213867189	-471.2449951171876	986.5820922851565	-784.0856933593752	-198.6360931396485	1158.192993164063	-762.7156982421876	-206.9127655029297	1231.135498046875	-886.9840087890627	-70.0176239013672	1147.581420898438	-991.0914306640627	-40.46728134155274	1165.259765625	-956.1582031250002	-1.611159205436707	1134.125732421875	-991.3877563476565	79.0081024169922	1115.414916992188	-977.900817871094	53.57473373413087	1044.126831054688	-935.3638305664065	nan	nan	nan	305.3286437988282	1125.48046875	-848.1268310546877	302.8831176757813	1148.69873046875	-742.0515747070314	-229.331039428711	1209.402954101563	-629.6425781250001	-113.4068984985352	1127.08203125	-510.3968200683595	-75.93173217773439	1142.861328125	-537.9484863281251	-46.01679229736329	1110.093383789063	-495.5537719726564	24.84875869750977	1099.3916015625	-495.2961425781251	26.95210456848145	1025.956787109375	-523.5286254882814	232.1028137207032	1127.365356445313	-680.0052490234376	258.4487304687501	1127.285034179688	-607.3123168945314	308.9465332031251	1162.77392578125	-706.8002929687501	-392.1159973144532	783.0439453125002	-922.9990844726565	-387.0961914062501	776.1687011718752	-672.0632934570314	-518.5798339843751	885.7947387695315	-794.082214355469	-535.4428710937501	860.312927246094	-822.824401855469	-537.5948486328126	859.1956787109377	-764.9658203125001	-382.4774780273438	601.0990600585939	-1025.069946289063	-321.9476623535157	542.8221435546876	-1034.587158203125	-285.7940063476563	555.6714477539064	-1002.761901855469	-327.1448974609376	482.8759765625001	-1046.831665039063	-313.1768798828126	396.5115356445314	-1051.226318359375	-304.2540283203126	349.9245605468751	-922.6556396484377	-380.7502746582032	285.7969970703126	-1019.334228515625	-438.6990661621095	332.5239562988282	-1064.031494140625	-430.5421752929689	290.9146728515626	-1050.239501953125	-506.9117736816407	269.0500793457032	-1019.624938964844	-662.0128784179689	300.4888610839844	-1041.37939453125	-639.7297973632814	280.7817687988282	-957.6785278320315	-681.2118530273439	360.6567077636719	-1002.573425292969	-724.2920532226564	167.9176177978516	-938.2637329101565	-737.1074829101564	155.0207824707032	-981.0429687500002	-760.2482299804689	190.016586303711	-1033.843994140625	-399.3664550781251	627.3608398437501	-613.0740356445314	-334.0155029296876	616.8621215820314	-616.7547607421876	-315.4146118164063	643.9212036132814	-626.5146484375001	-296.1835327148438	542.3949584960939	-624.4131469726564	-214.254623413086	429.0584716796876	-667.1049804687501	-185.3191833496094	448.6619567871095	-787.7239379882815	-201.1665802001954	300.8266906738282	-759.6204223632814	-275.4678344726563	239.0166015625001	-709.6571655273439	-246.2323913574219	226.5021057128907	-746.8147583007814	-277.7586059570313	200.3331604003907	-788.4761352539065	-388.4092407226564	110.2863540649414	-761.5588378906251	-355.0605163574219	142.0587310791016	-841.611999511719	-447.7169494628907	99.21563720703128	-823.1746826171877	-246.7541656494141	56.58135223388673	-835.1155395507815	-245.7553405761719	55.24600982666017	-792.6571044921877	-283.2519226074219	33.92599487304688	-740.7673950195314	-217.5638122558594	1380.250122070313	-667.7611083984376	
